<svg width="69" height="68" viewBox="0 0 69 68" fill="none" xmlns="http://www.w3.org/2000/svg">
<g clip-path="url(#clip0_44_34869)">
<path fill-rule="evenodd" clip-rule="evenodd" d="M12.9309 10.625C11.8684 5.1 16.1184 0 21.6434 0C26.5309 0 30.5684 4.0375 30.5684 8.925V19.975C31.8434 19.975 33.1184 19.7625 34.3934 19.7625C35.6684 19.7625 36.7309 19.7625 38.0059 19.975V8.925C38.0059 4.0375 42.0434 0 46.9309 0C52.4559 0 56.7059 5.1 55.8559 10.625L53.5184 23.5875C61.8059 27.2 68.1809 33.575 68.1809 41.4375V46.325C68.1809 52.9125 63.9309 58.4375 57.7684 62.05C51.6059 65.875 43.5309 68 34.3934 68C25.2559 68 17.1809 65.875 11.0184 62.05C5.06836 58.4375 0.818359 52.9125 0.818359 46.325V41.4375C0.818359 33.575 6.98086 27.2 15.2684 23.5875L12.9309 10.625ZM50.3309 25.2875L53.0934 9.9875C53.7309 6.1625 50.9684 2.55 46.9309 2.55C43.5309 2.55 40.7684 5.3125 40.7684 8.7125V22.7375C39.9184 22.525 38.8559 22.525 38.0059 22.525C36.7309 22.525 35.6684 22.3125 34.3934 22.3125C33.1184 22.3125 31.8434 22.3125 30.5684 22.525C29.7184 22.525 28.6559 22.7375 27.8059 22.7375V8.925C27.8059 5.525 25.0434 2.7625 21.6434 2.7625C17.8184 2.7625 14.8434 6.375 15.6934 10.2L18.4559 25.5C9.53086 28.9 3.58086 34.85 3.58086 41.65V46.5375C3.58086 56.95 17.3934 65.45 34.3934 65.45C51.3934 65.45 65.2059 56.95 65.2059 46.5375V41.65C65.4184 34.6375 59.4684 28.6875 50.3309 25.2875Z" fill="#633001"/>
<path d="M65.418 46.325C65.418 56.7375 51.6055 65.2375 34.6055 65.2375C17.6055 65.2375 3.79297 56.7375 3.79297 46.325V41.4375H65.6305V46.325H65.418Z" fill="#FEDC90"/>
<path fill-rule="evenodd" clip-rule="evenodd" d="M15.693 10.2002C14.843 6.3752 17.818 2.7627 21.643 2.7627C25.043 2.7627 27.8055 5.52519 27.8055 8.9252V22.9502C29.9305 22.7377 32.0555 22.5252 34.393 22.5252C36.518 22.5252 38.643 22.7377 40.768 22.9502V8.9252C40.768 5.52519 43.5305 2.7627 46.9305 2.7627C50.7555 2.7627 53.7305 6.3752 53.093 10.2002L50.3305 25.5002C59.2555 28.9002 65.418 34.8502 65.418 41.6502C65.418 52.0627 51.6055 60.5627 34.6055 60.5627C17.6055 60.5627 3.79297 52.0627 3.79297 41.6502C3.79297 34.8502 9.74297 28.9002 18.668 25.5002L15.693 10.2002Z" fill="#D1884F"/>
<path d="M25.8937 40.1625C25.8937 42.925 24.4062 45.2625 22.4937 45.2625C20.5812 45.2625 19.0938 42.925 19.0938 40.1625C19.0938 37.4 20.5812 35.0625 22.4937 35.0625C24.4062 35.0625 25.8937 37.4 25.8937 40.1625Z" fill="#633001"/>
<path d="M49.4807 40.1625C49.4807 42.925 47.9932 45.2625 46.0807 45.2625C44.1682 45.2625 42.6807 42.925 42.6807 40.1625C42.6807 37.4 44.1682 35.0625 46.0807 35.0625C47.9932 35.0625 49.4807 37.4 49.4807 40.1625Z" fill="#633001"/>
</g>
<defs>
<clipPath id="clip0_44_34869">
<rect width="67.3625" height="68" fill="white" transform="translate(0.818359)"/>
</clipPath>
</defs>
</svg>
