<svg width="61" height="68" viewBox="0 0 61 68" fill="none" xmlns="http://www.w3.org/2000/svg">
<g clip-path="url(#clip0_44_34856)">
<path d="M24.1319 15.4735C23.395 15.3682 23.3599 15.3331 23.7108 15.2981C24.3775 15.1928 25.9213 15.3331 27.009 15.5788C29.5354 16.1752 31.8161 17.7191 34.2371 20.4209L34.8687 21.1577L35.781 21.0174C39.6757 20.3858 43.6757 20.877 47.009 22.4209C47.9213 22.8419 49.3599 23.684 49.5354 23.8945C49.6055 23.9647 49.7108 24.4209 49.781 24.877C50.0266 26.5261 49.9213 27.7542 49.395 28.7016C49.1143 29.2279 49.1143 29.3682 49.2897 29.8244C49.4301 30.1752 49.8511 30.4209 50.2371 30.4209C51.0792 30.4209 51.9564 29.0875 52.3775 27.2279L52.5529 26.491L52.8687 26.8419C54.6582 28.8419 56.0617 31.6138 56.2722 33.5788L56.3424 34.1051L56.0266 33.6489C55.5003 32.8419 55.009 32.3156 54.3424 31.8595C53.1494 31.0524 51.8862 30.8068 48.5529 30.6314C45.5354 30.456 43.8161 30.2103 42.1319 29.6489C39.2547 28.7016 37.781 27.4735 34.3775 22.9472C32.8687 20.9472 31.9213 19.8595 30.974 18.9472C28.9038 16.9472 26.8336 15.8945 24.1319 15.4735Z" fill="#FF007A"/>
<path d="M50.2721 19.9295C50.3423 18.5961 50.5177 17.7189 50.9037 16.9119C51.044 16.5961 51.1844 16.3154 51.2195 16.3154C51.2545 16.3154 51.1844 16.561 51.0791 16.8417C50.7984 17.6137 50.7633 18.7014 50.9388 19.9295C51.1844 21.5084 51.2896 21.7189 52.9738 23.4382C53.7458 24.2453 54.6581 25.2628 55.0089 25.6838L55.6054 26.4558L55.0089 25.8944C54.2721 25.1926 52.5879 23.8593 52.2019 23.6839C51.9563 23.5435 51.9212 23.5435 51.7458 23.7189C51.6054 23.8593 51.5703 24.0698 51.5703 25.0874C51.5352 26.6663 51.3247 27.6488 50.7984 28.6663C50.5177 29.1926 50.4826 29.0874 50.7282 28.4909C50.9037 28.0347 50.9388 27.8242 50.9388 26.3154C50.9388 23.2628 50.5879 22.526 48.4475 21.2979C47.9212 20.9821 47.0089 20.526 46.4826 20.2803C45.9212 20.0347 45.5002 19.8242 45.5352 19.8242C45.6054 19.754 47.6756 20.3505 48.4826 20.7014C49.7107 21.1926 49.9212 21.2277 50.0616 21.1926C50.1668 21.0874 50.237 20.8067 50.2721 19.9295Z" fill="#FF007A"/>
<path d="M25.5698 25.1577C24.0961 23.1226 23.1488 19.9647 23.3593 17.6138L23.4295 16.877L23.7803 16.9471C24.4119 17.0524 25.4996 17.4734 26.0259 17.7892C27.4295 18.6313 28.061 19.7892 28.6575 22.6664C28.833 23.5085 29.0786 24.491 29.1838 24.8068C29.3593 25.3331 30.0259 26.5612 30.5874 27.3331C30.9733 27.8945 30.7277 28.1752 29.8505 28.105C28.5172 27.9647 26.7277 26.7366 25.5698 25.1577Z" fill="#FF007A"/>
<path d="M48.4826 40.4211C41.5352 37.614 39.0791 35.193 39.0791 31.0877C39.0791 30.4912 39.1142 30 39.1142 30C39.1493 30 39.3949 30.2105 39.7107 30.4561C41.1142 31.5789 42.6931 32.0702 47.0791 32.7018C49.6405 33.0877 51.1142 33.3684 52.4475 33.8246C56.6931 35.2281 59.3247 38.1053 59.9563 42C60.1317 43.1228 60.0265 45.2632 59.7458 46.386C59.5002 47.2632 58.7984 48.8772 58.623 48.9123C58.5879 48.9123 58.5177 48.7368 58.5177 48.4561C58.4475 46.9825 57.7107 45.5789 56.4826 44.4912C55.0089 43.2281 53.1142 42.2807 48.4826 40.4211Z" fill="#FF007A"/>
<path d="M43.5698 41.5791C43.4996 41.0528 43.3242 40.3861 43.2189 40.1054L43.0435 39.5791L43.3593 39.9651C43.8154 40.4914 44.1663 41.123 44.4821 42.0002C44.7277 42.6668 44.7277 42.8773 44.7277 43.9651C44.7277 45.0177 44.6926 45.2633 44.4821 45.8598C44.1312 46.8072 43.7102 47.4738 43.0084 48.2107C41.7452 49.5089 40.0961 50.2107 37.7452 50.5265C37.3242 50.5616 36.1312 50.6668 35.0786 50.737C32.447 50.8773 30.6926 51.158 29.1137 51.7194C28.9031 51.7896 28.6926 51.8598 28.6575 51.8247C28.5874 51.7545 29.6751 51.123 30.5523 50.7019C31.7803 50.1054 33.0435 49.7896 35.8154 49.2984C37.1838 49.0879 38.5873 48.8072 38.9382 48.6668C42.4119 47.5791 44.1312 44.8773 43.5698 41.5791Z" fill="#FF007A"/>
<path d="M46.7635 47.2284C45.8512 45.2284 45.6407 43.3337 46.1319 41.5442C46.2021 41.3688 46.2723 41.1934 46.3424 41.1934C46.4126 41.1934 46.6231 41.2986 46.8337 41.439C47.2547 41.7197 48.1319 42.2109 50.3775 43.439C53.2196 44.9828 54.8337 46.1758 55.9565 47.5442C56.9389 48.7372 57.5354 50.1056 57.8161 51.7899C57.9916 52.7372 57.8863 55.0179 57.6407 55.9653C56.8688 58.9477 55.1144 61.3337 52.553 62.7021C52.167 62.9127 51.8512 63.053 51.8161 63.053C51.781 63.053 51.9214 62.7021 52.1319 62.2811C52.974 60.4916 53.0793 58.7723 52.4477 56.8425C52.0617 55.6495 51.2547 54.2109 49.6407 51.7899C47.7109 48.9828 47.2547 48.246 46.7635 47.2284Z" fill="#FF007A"/>
<path d="M20.6226 57.9647C23.2191 55.7892 26.4121 54.2454 29.3594 53.7541C30.6226 53.5436 32.7278 53.6138 33.8857 53.9296C35.7454 54.4208 37.4296 55.4734 38.3068 56.7717C39.1489 58.0348 39.5349 59.1225 39.9208 61.5436C40.0612 62.491 40.2366 63.4734 40.2717 63.684C40.5524 64.9471 41.1138 65.9296 41.8156 66.4559C42.9033 67.2629 44.798 67.298 46.6577 66.5962C46.9735 66.491 47.2542 66.3857 47.2542 66.4208C47.3243 66.491 46.377 67.1226 45.7454 67.4383C44.8682 67.8945 44.1664 68.0348 43.2191 68.0348C41.5349 68.0348 40.0963 67.1576 38.9384 65.4033C38.6928 65.0524 38.2015 64.0348 37.7805 63.0875C36.5524 60.2454 35.9208 59.4033 34.4822 58.4559C33.2191 57.6489 31.605 57.4734 30.377 58.0699C28.7629 58.8418 28.3419 60.912 29.4647 62.1752C29.9208 62.7015 30.7629 63.1226 31.4647 63.2278C32.7629 63.4033 33.8857 62.3857 33.8857 61.0875C33.8857 60.2454 33.57 59.7541 32.7278 59.3682C31.605 58.8769 30.377 59.4383 30.4121 60.5261C30.4121 60.9822 30.6226 61.2629 31.0787 61.4734C31.3594 61.6138 31.3594 61.6138 31.1489 61.5787C30.1314 61.3682 29.8857 60.105 30.6928 59.298C31.6752 58.3155 33.7454 58.7366 34.4471 60.105C34.7278 60.6664 34.7629 61.7892 34.5173 62.491C33.9208 64.0348 32.2366 64.8418 30.5173 64.3857C29.3594 64.0699 28.8682 63.7541 27.4647 62.3155C25.0085 59.7892 24.0612 59.298 20.5524 58.7717L19.8857 58.6664L20.6226 57.9647Z" fill="#FF007A"/>
<path fill-rule="evenodd" clip-rule="evenodd" d="M2.16622 1.50877C10.3417 11.4386 22.9382 26.8772 23.5697 27.7193C24.096 28.4211 23.8855 29.0877 23.0083 29.5789C22.5171 29.8596 21.4996 30.1403 21.0083 30.1403C20.4469 30.1403 19.7803 29.8596 19.3241 29.4035C19.0083 29.0877 17.6399 27.0877 14.5522 22.2807C12.2013 18.5965 10.2013 15.5439 10.1662 15.5088C10.0259 15.4386 10.0259 15.4386 14.3066 23.0877C17.0083 27.8947 17.8855 29.614 17.8855 29.8246C17.8855 30.2807 17.7452 30.5263 17.1838 31.1579C16.2364 32.2105 15.8153 33.4035 15.4996 35.8947C15.1487 38.6667 14.2013 40.6316 11.4996 43.9649C9.92061 45.9298 9.67499 46.2807 9.28903 47.0877C8.7978 48.0702 8.65745 48.6316 8.58728 49.8947C8.5171 51.2281 8.65745 52.0702 9.04342 53.3333C9.39429 54.4561 9.78026 55.193 10.7276 56.6316C11.5346 57.8947 12.0259 58.8421 12.0259 59.193C12.0259 59.4737 12.096 59.4737 13.3592 59.193C16.3767 58.4912 18.868 57.2982 20.2364 55.8246C21.0785 54.9123 21.289 54.421 21.289 53.1579C21.289 52.3509 21.2539 52.1754 21.0434 51.6842C20.6925 50.9123 20.0259 50.2807 18.5873 49.2982C16.6925 48 15.8855 46.9474 15.675 45.5439C15.4996 44.3509 15.7101 43.5439 16.7627 41.3333C17.8504 39.0526 18.1311 38.1053 18.3066 35.7895C18.4118 34.3158 18.5873 33.7193 19.0083 33.2632C19.4645 32.7719 19.8504 32.5965 20.9382 32.4561C22.7276 32.2105 23.8855 31.7544 24.7978 30.8772C25.6048 30.1403 25.9557 29.4035 25.9908 28.3158L26.0259 27.5088L25.5697 27.0175C23.9206 25.1228 1.0785 0 0.97324 0C0.938153 0 1.49956 0.666667 2.16622 1.50877ZM12.9382 51.4035C13.3241 50.7368 13.1136 49.8947 12.482 49.4737C11.8855 49.0877 10.9732 49.2632 10.9732 49.7895C10.9732 49.9298 11.0434 50.0702 11.2539 50.1403C11.5697 50.3158 11.6048 50.4912 11.3592 50.8772C11.1136 51.2632 11.1136 51.614 11.4294 51.8596C11.9206 52.2456 12.5873 52.0351 12.9382 51.4035Z" fill="#FF007A"/>
<path fill-rule="evenodd" clip-rule="evenodd" d="M27.1489 32.9471C26.3068 33.1927 25.4998 34.105 25.2541 35.0173C25.1138 35.5787 25.184 36.5962 25.4296 36.912C25.8156 37.4032 26.1664 37.5436 27.1489 37.5436C29.0787 37.5436 30.7278 36.7015 30.9033 35.6839C31.0787 34.8418 30.3419 33.6839 29.3243 33.1576C28.798 32.8769 27.7103 32.7717 27.1489 32.9471ZM29.3945 34.7015C29.6752 34.2804 29.5699 33.8243 29.0436 33.5085C28.0963 32.912 26.6577 33.4032 26.6577 34.3155C26.6577 34.7717 27.3945 35.2629 28.0963 35.2629C28.5524 35.2629 29.184 34.9822 29.3945 34.7015Z" fill="#FF007A"/>
</g>
<defs>
<clipPath id="clip0_44_34856">
<rect width="59.0526" height="68" fill="white" transform="translate(0.973633)"/>
</clipPath>
</defs>
</svg>
