<svg width="77" height="79" viewBox="0 0 77 79" fill="none" xmlns="http://www.w3.org/2000/svg">
<path d="M76 39.1908C76 46.3496 76.0104 53.5085 75.9896 60.6674C75.9896 62.8341 75.8338 64.9797 75.3977 67.1146C74.7226 70.4391 72.9364 73.0201 70.4232 75.1444C68.3982 76.8545 66.0512 77.7785 63.4653 78.1184C61.6375 78.3627 59.8098 78.4583 57.9716 78.4583C44.3361 78.4583 30.7006 78.4689 17.0651 78.4477C15.0401 78.4477 13.0254 78.2671 11.0418 77.8423C8.72599 77.3431 6.74246 76.2278 4.99778 74.624C3.13886 72.9139 1.70574 70.8958 0.947631 68.4317C0.511461 67.019 0.293376 65.5745 0.179141 64.1087C-0.00778878 61.8145 0.00259613 59.5203 0.00259613 57.226C0.00259613 44.1616 -0.00778863 31.0972 0.0129814 18.0328C0.0129814 15.6111 0.220681 13.2001 0.895706 10.8633C1.37342 9.19577 2.23537 7.74063 3.28425 6.40233C4.87316 4.39487 6.79438 2.85476 9.15178 1.92007C10.4914 1.389 11.8934 1.12346 13.3162 0.974763C15.362 0.751712 17.4078 0.730469 19.4537 0.730469C32.2688 0.74109 45.0942 0.74109 57.9093 0.730469C59.3944 0.730469 60.8794 0.74109 62.3541 0.911034C65.1581 1.2403 67.827 1.96256 70.1117 3.74696C72.8845 5.92436 74.7019 8.72843 75.4288 12.2548C75.8027 14.1029 75.9896 15.9616 75.9896 17.8416C76 24.9686 76 32.0744 76 39.1908Z" fill="#2B6AFF"/>
<path d="M46.6425 36.3651C46.2271 37.0237 45.8117 37.6928 45.4067 38.3513C43.8593 40.8474 42.3846 43.3753 40.8684 45.882C40.3907 46.6786 39.8195 47.4008 39.0718 47.9638C36.7871 49.6951 34.4297 47.9425 34.1597 45.9032C33.9832 44.5861 33.8482 43.2691 33.8378 41.9414C33.8274 40.4013 33.8378 38.8612 33.8378 37.3317C33.8378 37.1086 33.817 36.8856 33.8066 36.6625C33.7028 36.6625 33.6924 36.7475 33.6612 36.8006C30.8157 41.6121 27.8249 46.3387 24.9171 51.1077C24.7405 51.3945 24.5744 51.6919 24.3874 51.9787C24.3043 52.1061 24.3044 52.1911 24.4186 52.3186C27.3575 55.4306 30.8469 57.5337 35.0632 58.1922C40.183 58.9995 44.8355 57.8205 48.9999 54.6553C49.5087 54.2729 49.9657 53.8268 50.4642 53.4232C51.0769 52.9346 51.7519 52.6372 52.5619 52.8284C52.6762 52.8603 52.7696 52.8921 52.8527 52.9771C53.0396 53.1577 53.2266 53.3488 53.4343 53.5082C54.0574 53.9755 54.0885 54.6128 53.9224 55.2926C53.7147 56.1104 53.1642 56.6734 52.5515 57.1832C49.7268 59.5836 46.549 61.2937 42.935 62.0691C36.0186 63.5667 29.7149 62.1434 24.159 57.6718C19.9219 54.2623 17.2322 49.8013 16.0483 44.4056C15.4356 41.6121 15.3733 38.7868 15.7887 35.9509C17.0556 27.1351 23.2035 20.4542 30.0888 17.7776C32.332 16.9066 34.6374 16.4287 37.0364 16.3543C39.6326 16.2693 42.1873 16.503 44.6693 17.3209C48.0341 18.4255 50.9938 20.2099 53.5277 22.7166C56.9859 26.1367 59.1668 30.2684 60.0807 35.1012C60.5272 37.4591 60.6311 39.8383 60.2572 42.2069C59.8106 45.0641 57.5467 47.9 54.4831 48.4948C51.4507 49.0896 48.626 47.4858 47.4006 44.4587C46.8709 43.1522 46.7256 41.7821 46.7256 40.3907C46.7256 39.1055 46.7256 37.8309 46.7256 36.5457C46.7256 36.5032 46.7256 36.4607 46.7152 36.4076C46.684 36.3758 46.6632 36.3651 46.6425 36.3651Z" fill="#FEFEFE"/>
<path d="M37.9407 42.5582C37.9407 41.9209 37.9407 41.273 37.9407 40.6357C37.9407 37.991 37.9511 35.3356 37.92 32.6909C37.9096 31.6181 37.6707 30.5984 36.9022 29.7912C36.2168 29.0796 35.1575 28.8778 34.254 29.2708C33.6102 29.5469 33.1117 30.0143 32.7171 30.5878C31.8032 31.9155 31.0347 33.3388 30.1727 34.6983C27.3896 39.0425 24.7933 43.5035 22.0517 47.8689C21.8336 48.2194 21.6467 48.2301 21.4597 47.8371C21.2313 47.3697 21.0339 46.8918 20.847 46.4032C20.0578 44.3214 19.632 42.1758 19.6008 39.9347C19.5385 35.3038 20.8055 31.1083 23.6614 27.497C26.4653 23.9494 30.0689 21.6446 34.4721 20.8161C40.8381 19.6159 46.363 21.4321 50.9635 26.0312C53.8298 28.8884 55.4914 32.436 56.156 36.4827C56.4052 37.9804 56.4676 39.4886 56.3118 40.9862C56.1975 42.0909 55.7614 43.0574 54.8994 43.7691C54.1829 44.3532 53.3728 44.6825 52.4693 44.3214C51.5139 43.939 51.0258 43.1424 50.8597 42.1227C50.6208 40.6357 50.652 39.1381 50.6831 37.6405C50.7039 36.3659 50.787 35.0701 50.517 33.8061C50.195 32.3404 49.3642 31.2995 47.8792 30.9171C47.1626 30.7365 46.498 30.9808 45.8749 31.3207C44.9298 31.8305 44.2133 32.6271 43.6109 33.5087C42.5309 35.0701 41.5962 36.7376 40.5993 38.3627C39.7685 39.7223 38.9377 41.0818 38.1069 42.4414C38.0757 42.4839 38.0446 42.537 38.0134 42.5795L37.9407 42.5582Z" fill="#2B6AFF"/>
</svg>
