<svg width="72" height="80" viewBox="0 0 72 80" fill="none" xmlns="http://www.w3.org/2000/svg">
<path d="M71.8143 39.8455C71.8584 54.4111 63.2093 67.5743 49.8116 73.1952C36.4138 78.816 20.9777 75.8234 10.6539 65.5756C0.330149 55.3277 -2.78792 39.8455 2.68798 26.3731C8.16388 12.8897 21.2421 4.08843 35.7307 4.00009C55.607 3.95592 71.7262 19.9682 71.8143 39.8455Z" fill="#8DC63F"/>
<path d="M69.1486 39.8456C69.1927 53.318 61.1827 65.4873 48.7765 70.6996C36.3704 75.9229 22.1132 73.1069 12.5607 63.6652C2.99713 54.1904 0.0994184 39.8898 5.17867 27.4554C10.2469 14.9769 22.3335 6.86033 35.7313 6.77198C54.1092 6.6726 69.0495 21.4701 69.1486 39.8456Z" fill="#F9E988"/>
<path d="M36.5469 8.9032C38.6733 8.53878 40.7998 8.53878 42.9262 8.9032C45.0527 9.22344 47.1351 9.95228 49.0412 10.9461C50.9473 11.9952 52.5669 13.3977 54.1976 14.7118C55.8282 16.0259 57.4589 17.3842 59.0014 18.886C60.5879 20.3326 61.9431 22.0222 63.078 23.8333C64.2569 25.6443 65.2044 27.5989 65.9316 29.5977C67.3309 33.6836 67.7826 38.0787 67.1105 42.2529H66.8792C66.1961 38.0787 65.2485 34.1253 63.7501 30.3596C63.067 28.4492 62.2076 26.594 61.3041 24.8271C60.3125 23.0603 59.2658 21.2934 58.0869 19.659C56.908 17.9805 55.4205 16.4787 53.7458 15.2529C52.0711 14.0271 50.1209 13.2541 48.2699 12.5253C46.4189 11.7964 44.5128 11.0234 42.5626 10.4382C40.6125 9.89706 38.6293 9.4443 36.5469 9.03571V8.9032Z" fill="white"/>
<path d="M52.7536 28.096C50.3517 27.4114 47.8617 26.4175 45.3275 25.4237C45.1953 24.7832 44.6004 24.0212 43.4765 23.0163C41.8459 21.5697 38.7278 21.6138 36.0505 22.2433C33.1087 21.5586 30.1669 21.2936 27.3574 21.9672C4.40706 28.3169 17.3972 43.7439 8.97949 59.3144C10.1584 61.8543 23.1044 76.7402 41.8018 72.7427C41.8018 72.7427 35.4225 57.3598 49.8559 49.9611C61.579 43.9758 70.0077 32.8114 52.7536 28.096Z" fill="#8BC53F"/>
<path d="M36.0508 22.2434C37.7255 22.3759 43.7964 24.3305 45.3279 25.4238C44.0167 21.6471 39.6757 21.1501 36.0508 22.2434Z" fill="#009345"/>
<path d="M55.6073 38.2113C55.6073 39.4371 54.1089 40.0665 53.2495 39.2052C52.3901 38.3438 52.9741 36.842 54.1971 36.7978C54.9793 36.8531 55.6073 37.4383 55.6073 38.2113ZM37.6371 31.8175C37.6371 34.4015 36.0506 36.7647 33.6487 37.7586C31.2468 38.7524 28.4923 38.2113 26.6303 36.3561C24.7682 34.5009 24.2394 31.7291 25.231 29.3218C26.2226 26.9144 28.5804 25.3242 31.1586 25.3242C32.8774 25.3242 34.5081 26.0089 35.687 27.1794C36.954 28.4604 37.6371 30.0948 37.6371 31.8175Z" fill="white"/>
<path d="M35.7313 31.8611C35.7313 33.6722 34.6406 35.3507 32.9218 36.0354C31.2471 36.72 29.2969 36.3556 27.9858 35.0415C26.6746 33.7274 26.311 31.817 26.9941 30.0943C27.6773 28.4157 29.352 27.2783 31.1589 27.2783C33.693 27.3225 35.7313 29.3654 35.7313 31.8611Z" fill="#58595B"/>
<path d="M60.8193 41.0708C55.6078 44.7481 49.6802 47.5089 41.3066 47.5089C37.3732 47.5089 36.602 43.3346 33.9687 45.3776C32.6135 46.4267 27.8978 48.7788 24.1407 48.6463C20.3836 48.4696 14.3127 46.2389 12.638 38.2549C11.9549 46.2831 11.6464 52.18 8.60547 58.9494C14.5772 68.5678 28.8454 75.9665 41.7914 72.7862C40.3921 63.0353 48.8979 53.5052 53.6577 48.6463C55.5197 46.7469 59.0014 43.7432 60.8193 41.0708Z" fill="#8BC53F"/>
<path d="M60.5875 41.303C58.9568 42.8049 57.0617 43.8871 55.1116 44.8368C53.1173 45.7865 51.079 46.5153 48.9526 47.1006C46.8261 47.6417 44.6115 48.0503 42.3859 47.8736C40.1272 47.6969 37.8575 46.9239 36.3701 45.2454L36.4583 45.157C38.2652 46.3386 40.3917 46.7472 42.474 46.8355C44.6005 46.8797 46.7269 46.7472 48.8093 46.3386C50.8917 45.8859 52.9741 45.2454 54.9683 44.4282C56.9626 43.611 58.9017 42.6613 60.6315 41.292H60.5875V41.303Z" fill="#58595B"/>
</svg>
