<svg width="111" height="105" viewBox="0 0 111 105" fill="none" xmlns="http://www.w3.org/2000/svg">
<path d="M75.377 86.3474C94.8247 76.7578 101.599 53.8625 90.5083 35.2092C79.4173 16.5559 54.6609 9.20827 35.2132 18.7978C15.7655 28.3873 8.99099 51.2826 20.0819 69.9359C31.1729 88.5892 55.9294 95.9369 75.377 86.3474Z" fill="#627EEA"/>
<path d="M41.2646 26.584L52.414 45.319L73.1551 44.2517L41.2646 26.584Z" fill="white" fill-opacity="0.602"/>
<path d="M41.4124 26.6184L40.24 60.5736L52.5617 45.3535L41.4124 26.6184Z" fill="white"/>
<path d="M63.7666 64.7131L71.3414 77.437L74.8327 47.3828L63.7666 64.7131Z" fill="white" fill-opacity="0.602"/>
<path d="M71.4836 77.4785L63.9075 64.7525L41.9121 63.7051L71.4836 77.4785Z" fill="white"/>
<path d="M62.0574 61.6643L73.1026 44.3534L52.3838 45.4199L62.0574 61.6643Z" fill="white" fill-opacity="0.2"/>
<path d="M40.2046 60.6609L62.188 61.7132L52.5144 45.4688L40.2046 60.6609Z" fill="white" fill-opacity="0.602"/>
</svg>
