<svg width="72" height="72" viewBox="0 0 72 72" fill="none" xmlns="http://www.w3.org/2000/svg">
<path d="M60.9908 12.6834C56.3302 10.5028 51.3467 8.91802 46.1367 8.01562C45.4968 9.17246 44.7493 10.7284 44.2339 11.9662C38.6955 11.1333 33.208 11.1333 27.7715 11.9662C27.2562 10.7284 26.4917 9.17246 25.8461 8.01562C20.6304 8.91802 15.6413 10.5086 10.9806 12.695C1.57993 26.9006 -0.968433 40.7534 0.30575 54.4094C6.54076 59.0656 12.5832 61.894 18.5237 63.7449C19.9905 61.7263 21.2986 59.5804 22.4255 57.3188C20.2793 56.5033 18.2236 55.4969 16.2812 54.3285C16.7965 53.9467 17.3006 53.5476 17.7875 53.1369C29.6346 58.6781 42.5067 58.6781 54.2122 53.1369C54.7049 53.5476 55.2089 53.9467 55.7185 54.3285C53.7704 55.5026 51.7091 56.509 49.5629 57.3246C50.6898 59.5804 51.9923 61.7321 53.4647 63.7506C59.4109 61.8998 65.459 59.0714 71.694 54.4094C73.189 38.5786 69.14 24.853 60.9908 12.6834ZM24.0395 46.0111C20.4832 46.0111 17.5667 42.691 17.5667 38.6479C17.5667 34.6049 20.4209 31.2791 24.0395 31.2791C27.6583 31.2791 30.5747 34.5991 30.5124 38.6479C30.518 42.691 27.6583 46.0111 24.0395 46.0111ZM47.9602 46.0111C44.4039 46.0111 41.4874 42.691 41.4874 38.6479C41.4874 34.6049 44.3415 31.2791 47.9602 31.2791C51.5789 31.2791 54.4954 34.5991 54.4331 38.6479C54.4331 42.691 51.5789 46.0111 47.9602 46.0111Z" fill="#5865F2"/>
</svg>
