<svg width="72" height="72" viewBox="0 0 72 72" fill="none" xmlns="http://www.w3.org/2000/svg">
<g clip-path="url(#clip0_112_10)">
<path d="M64.4368 21.2772C64.4804 21.9072 64.4804 22.5372 64.4804 23.173C64.4804 42.5462 49.732 64.8895 22.7639 64.8895V64.8779C14.7975 64.8895 6.99649 62.6075 0.290039 58.305C1.44843 58.4443 2.61262 58.514 3.77972 58.5169C10.3817 58.5227 16.7949 56.3075 21.9887 52.2285C15.7149 52.1095 10.2133 48.0188 8.29133 42.0469C10.4891 42.4708 12.7536 42.3837 14.9107 41.7943C8.07068 40.4124 3.14972 34.4027 3.14972 27.4233V27.2375C5.18778 28.3727 7.46972 29.0027 9.80391 29.0724C3.36165 24.7669 1.37585 16.1966 5.26617 9.49592C12.71 18.6556 23.6929 24.224 35.4829 24.8133C34.3013 19.7211 35.9155 14.385 39.7246 10.8053C45.6297 5.25431 54.9171 5.53883 60.4681 11.4411C63.7516 10.7937 66.8988 9.58883 69.7787 7.88173C68.6842 11.2756 66.3936 14.1585 63.3336 15.9904C66.2397 15.6479 69.0791 14.8698 71.7529 13.6824C69.7846 16.6321 67.3052 19.2014 64.4368 21.2772Z" fill="#1D9BF0"/>
</g>
<defs>
<clipPath id="clip0_112_10">
<rect width="72" height="59.2258" fill="white" transform="translate(0 6.38672)"/>
</clipPath>
</defs>
</svg>
